<svg width="40" height="40" viewBox="0 0 40 40" fill="none" xmlns="http://www.w3.org/2000/svg">
<path d="M14.9997 36.6667C15.9201 36.6667 16.6663 35.9205 16.6663 35C16.6663 34.0795 15.9201 33.3333 14.9997 33.3333C14.0792 33.3333 13.333 34.0795 13.333 35C13.333 35.9205 14.0792 36.6667 14.9997 36.6667Z" stroke="white" stroke-width="2" stroke-linecap="round" stroke-linejoin="round"/>
<path d="M33.3337 36.6667C34.2541 36.6667 35.0003 35.9205 35.0003 35C35.0003 34.0795 34.2541 33.3333 33.3337 33.3333C32.4132 33.3333 31.667 34.0795 31.667 35C31.667 35.9205 32.4132 36.6667 33.3337 36.6667Z" stroke="white" stroke-width="2" stroke-linecap="round" stroke-linejoin="round"/>
<path d="M1.66699 1.66666H8.33366L12.8003 23.9833C12.9527 24.7507 13.3702 25.4399 13.9796 25.9305C14.589 26.4211 15.3515 26.6816 16.1337 26.6667H32.3337C33.1158 26.6816 33.8784 26.4211 34.4878 25.9305C35.0971 25.4399 35.5146 24.7507 35.667 23.9833L38.3337 9.99999H10.0003" stroke="white" stroke-width="2" stroke-linecap="round" stroke-linejoin="round"/>
</svg>
