<svg width="18" height="18" viewBox="0 0 18 18" fill="none" xmlns="http://www.w3.org/2000/svg">
<path d="M1.5 1.5H3.16667L3.5 3.16667M3.5 3.16667H16.5L13.1667 9.83333H4.83333M3.5 3.16667L4.83333 9.83333M4.83333 9.83333L2.9225 11.7442C2.3975 12.2692 2.76917 13.1667 3.51167 13.1667H13.1667M13.1667 13.1667C12.7246 13.1667 12.3007 13.3423 11.9882 13.6548C11.6756 13.9674 11.5 14.3913 11.5 14.8333C11.5 15.2754 11.6756 15.6993 11.9882 16.0118C12.3007 16.3244 12.7246 16.5 13.1667 16.5C13.6087 16.5 14.0326 16.3244 14.3452 16.0118C14.6577 15.6993 14.8333 15.2754 14.8333 14.8333C14.8333 14.3913 14.6577 13.9674 14.3452 13.6548C14.0326 13.3423 13.6087 13.1667 13.1667 13.1667ZM6.5 14.8333C6.5 15.2754 6.3244 15.6993 6.01184 16.0118C5.69928 16.3244 5.27536 16.5 4.83333 16.5C4.39131 16.5 3.96738 16.3244 3.65482 16.0118C3.34226 15.6993 3.16667 15.2754 3.16667 14.8333C3.16667 14.3913 3.34226 13.9674 3.65482 13.6548C3.96738 13.3423 4.39131 13.1667 4.83333 13.1667C5.27536 13.1667 5.69928 13.3423 6.01184 13.6548C6.3244 13.9674 6.5 14.3913 6.5 14.8333Z" stroke="white" stroke-width="1.5" stroke-linecap="round" stroke-linejoin="round"/>
</svg>
