<svg width="41" height="40" viewBox="0 0 41 40" fill="none" xmlns="http://www.w3.org/2000/svg">
<path d="M15.4997 36.6667C16.4201 36.6667 17.1663 35.9205 17.1663 35C17.1663 34.0796 16.4201 33.3334 15.4997 33.3334C14.5792 33.3334 13.833 34.0796 13.833 35C13.833 35.9205 14.5792 36.6667 15.4997 36.6667Z" stroke="#035ADC" stroke-width="2" stroke-linecap="round" stroke-linejoin="round"/>
<path d="M33.8337 36.6667C34.7541 36.6667 35.5003 35.9205 35.5003 35C35.5003 34.0796 34.7541 33.3334 33.8337 33.3334C32.9132 33.3334 32.167 34.0796 32.167 35C32.167 35.9205 32.9132 36.6667 33.8337 36.6667Z" stroke="#035ADC" stroke-width="2" stroke-linecap="round" stroke-linejoin="round"/>
<path d="M2.16699 1.66663H8.83366L13.3003 23.9833C13.4527 24.7506 13.8702 25.4399 14.4796 25.9305C15.089 26.421 15.8515 26.6816 16.6337 26.6666H32.8337C33.6158 26.6816 34.3784 26.421 34.9878 25.9305C35.5971 25.4399 36.0146 24.7506 36.167 23.9833L38.8337 9.99996H10.5003" stroke="#035ADC" stroke-width="2" stroke-linecap="round" stroke-linejoin="round"/>
</svg>
