<svg width="41" height="40" viewBox="0 0 41 40" fill="none" xmlns="http://www.w3.org/2000/svg">
<path d="M25.0002 10.5C24.6949 10.8116 24.5238 11.2304 24.5238 11.6667C24.5238 12.1029 24.6949 12.5218 25.0002 12.8333L27.6669 15.5C27.9785 15.8054 28.3973 15.9764 28.8336 15.9764C29.2698 15.9764 29.6887 15.8054 30.0002 15.5L36.2836 9.21667C37.1216 11.0687 37.3754 13.1321 37.011 15.1319C36.6466 17.1318 35.6814 18.9731 34.244 20.4105C32.8067 21.8479 30.9653 22.8131 28.9655 23.1774C26.9656 23.5418 24.9022 23.2881 23.0502 22.45L11.5336 33.9667C10.8705 34.6297 9.97126 35.0022 9.03358 35.0022C8.0959 35.0022 7.19662 34.6297 6.53358 33.9667C5.87054 33.3036 5.49805 32.4044 5.49805 31.4667C5.49805 30.529 5.87054 29.6297 6.53358 28.9667L18.0502 17.45C17.2122 15.598 16.9584 13.5346 17.3228 11.5348C17.6872 9.53491 18.6524 7.6936 20.0898 6.25621C21.5272 4.81882 23.3685 3.85362 25.3683 3.48924C27.3682 3.12487 29.4316 3.37861 31.2836 4.21667L25.0169 10.4833L25.0002 10.5Z" stroke="white" stroke-width="2" stroke-linecap="round" stroke-linejoin="round"/>
</svg>
